<svg width="35" height="40" viewBox="0 0 35 40" fill="none" xmlns="http://www.w3.org/2000/svg">
<path fill-rule="evenodd" clip-rule="evenodd" d="M0 10.0042V30.013L17.4773 40L34.7723 30.1171L23.0301 23.4073L17.4773 26.5803L11.6515 23.2513V22.4188V16.7315V12.2582V7.78503V3.34622L7.76769 5.56556V10.0044V14.4776V22.4188V25.5052L17.4773 31.0536L23.0301 27.8805L26.9442 30.1171L17.4773 35.5268L3.88384 27.7591V26.5454V12.2237V7.7849L0 10.0042ZM15.5354 1.12688L17.5074 0L34.7723 9.86566L23.0301 16.5755L17.4773 13.4025L15.5354 14.5121V10.0389L17.4773 8.92924L23.0301 12.1023L26.9442 9.86566L17.4773 4.45602L15.5354 5.56569V1.12688Z" fill="#ffffff"/>
</svg>
